<svg width="335" height="152" viewBox="0 0 335 152" fill="none" xmlns="http://www.w3.org/2000/svg">
<g filter="url(#filter0_d_450_2058)">
<path d="M168.169 146.716C249.842 146.716 316.051 114.902 316.051 75.6574C316.051 36.4128 249.842 4.59875 168.169 4.59875C86.4965 4.59875 20.2876 36.4128 20.2876 75.6574C20.2876 114.902 86.4965 146.716 168.169 146.716Z" fill="#145FCA" stroke="#145FCA" stroke-width="3.36882" stroke-miterlimit="10"/>
<path d="M168.169 149.584C128.171 149.584 90.5152 142.077 62.1437 128.442C33.1317 114.502 17.1543 95.7547 17.1543 75.6574C17.1543 55.5602 33.1317 36.8132 62.1437 22.8726C90.5152 9.23791 128.171 1.73102 168.169 1.73102C208.167 1.73102 245.823 9.23791 274.195 22.8726C303.207 36.8132 319.184 55.5602 319.184 75.6574C319.184 95.7547 303.207 114.502 274.195 128.442C245.823 142.077 208.167 149.584 168.169 149.584ZM168.169 7.46649C129.169 7.46649 92.5463 14.7426 65.0576 27.9503C38.2094 40.8522 23.4206 57.7932 23.4206 75.6574C23.4206 93.5216 38.2094 110.463 65.0576 123.365C92.5463 136.572 129.163 143.848 168.169 143.848C207.175 143.848 243.792 136.572 271.281 123.365C298.129 110.463 312.918 93.5216 312.918 75.6574C312.918 57.7932 298.129 40.8522 271.281 27.9503C243.792 14.7426 207.175 7.46649 168.169 7.46649Z" fill="white" stroke="#145FCA" stroke-width="3.36882" stroke-miterlimit="10"/>
<path d="M330.488 105.8L330.297 105.518C329.334 104.116 328.509 103.504 327.545 103.475C326.876 103.452 326.206 103.764 325.785 104.306C323.35 107.451 318.469 109.643 313.928 109.643C309.023 109.643 307.228 108.322 307.009 104.312C323.558 103.752 334.134 97.6473 334.134 88.5074C334.134 84.6242 331.965 78.104 317.442 78.104C307.65 78.104 300.108 81.7853 295.988 88.0631C296.006 87.7631 296.023 87.4573 296.023 87.163C296.023 80.6717 292.422 77.0942 285.891 77.0942C282.331 77.0942 278.009 78.9637 274.022 82.2238L272.267 83.6779C270.9 79.5869 267.923 77.2327 263.918 77.2327C260.531 77.2327 256.769 78.9118 252.724 82.2296L251.691 83.0893C251.328 81.7276 250.71 80.5966 249.845 79.7138C248.431 78.2713 246.435 77.5385 243.907 77.5385C240.578 77.5385 235.829 78.1963 232.869 83.8683L230.4 87.5496C228.519 83.1874 223.897 79.0676 213.141 79.0676C203.465 79.0676 194.781 85.0569 190.632 91.1963C190.961 90.954 191.936 88.0862 191.936 87.7054C191.936 86.6322 191.602 85.6224 190.967 84.7857C187.539 80.0023 182.046 79.6042 177.171 79.6042C168.712 79.6042 162.607 81.8372 159.653 85.807C157.898 82.7604 153.698 79.9273 144.114 79.9273C134.53 79.9273 126.913 83.5452 122.77 89.7192C121.968 81.4968 117.889 80.1697 115.35 80.1697C112.569 80.1697 110.064 82.218 108.76 83.9779C107.981 85.0338 107.145 86.5975 107.601 88.0862C108.241 90.1865 109.712 91.6521 111.138 93.0716C113.076 95.0046 114.75 96.6721 114.75 99.9091C114.75 105.662 108.899 113.307 106.222 113.307C103.158 113.307 102.592 111.905 102.592 109.141C102.592 107.029 103.065 104.45 103.562 101.715C104.098 98.7782 104.652 95.7431 104.652 93.0139C104.652 86.2225 100.728 81.9988 94.4044 81.9988H94.3178C91.4501 82.1257 87.7399 82.5758 86.3666 84.0068C85.755 84.6415 85.5992 85.5474 85.905 86.7014L86.2974 88.1901L87.838 88.2016C88.5016 88.2074 90.0653 88.2189 90.0653 94.6007C90.0653 100.123 90.3249 104.306 90.8788 107.67C88.6285 111.305 85.7377 113.307 84.5087 113.307C82.0968 113.307 81.6236 112.892 81.6236 108.091C81.6236 106.147 82.0044 103.885 82.4026 101.49C82.8353 98.9282 83.2796 96.274 83.2796 93.7929C83.2796 86.5629 79.4656 82.5758 72.5357 82.5758C70.8682 82.5758 69.3218 83.0951 67.9427 84.1164C66.3502 84.9184 64.3249 86.7822 61.7918 89.1075C59.6223 91.0982 56.316 94.1333 54.0657 95.3969C54.0714 91.9637 54.3311 88.2362 54.585 84.6357C54.8446 80.9025 55.1158 77.0365 55.1158 73.3956C55.1158 65.2078 53.8695 55.3236 44.1353 51.475C43.1717 51.0942 42.4793 50.8345 42.0235 50.673C41.5042 50.4941 41.0599 50.4191 40.6964 50.4306C40.2925 50.3614 39.8828 50.4191 39.4443 50.6556L38.3652 51.25V52.4617C38.3652 56.5584 35.0705 65.681 34.0781 67.3139L33.5011 68.2833L34.0031 69.2815C34.557 70.3778 35.3821 70.4586 37.8459 70.6894C37.9671 70.7009 38.1056 70.7125 38.2441 70.7298C36.513 73.863 34.6147 78.3521 32.6067 83.0893C31.0892 86.6783 29.5197 90.377 27.8464 93.966C25.2902 93.7294 23.3284 93.614 21.557 93.5851C8.41269 93.5851 0.876953 99.3264 0.876953 109.332C0.876953 115.24 5.53342 119.366 12.1921 119.366C18.8508 119.366 24.8401 113.336 31.1353 100.948C32.3066 101.23 33.5011 101.525 34.7474 101.836C37.5228 102.529 40.379 103.244 43.189 103.81C46.1145 122.384 57.1931 133.872 72.2992 133.872C82.9104 133.872 87.7399 129.164 87.7399 124.784C87.7399 122.736 86.5744 121.068 84.6068 120.053C87.5207 119.239 90.348 117.393 92.9792 114.577C95.0333 118.529 98.3396 120.526 102.834 120.526C108.045 120.526 113.151 117.064 117.219 110.786C118.125 109.384 118.939 107.906 119.649 106.377C121.431 113.44 128.05 117.814 137.513 117.814C144.096 117.814 150.017 115.794 154.477 112.072C157.414 115.719 162.682 117.491 170.535 117.491C180.148 117.491 187.516 114.398 190.401 109.568C193.338 114.213 199.045 116.954 206.54 116.954C220.919 116.954 231.392 107.347 231.577 94.0583C232.846 94.1275 233.792 93.6775 234.416 93.2158C235.35 92.5234 235.979 91.4848 236.395 90.3827L232.95 110.936L232.921 111.34C232.921 114.057 236.695 114.375 239.54 114.375H243.798C244.911 114.375 246.187 113.688 246.446 112.407L249.885 98.2127C250.024 97.6127 250.203 96.9433 250.387 96.2163C250.82 94.5603 251.345 92.535 251.686 90.4981C252.799 89.5749 255.35 87.4573 256.359 86.6322L256.625 86.4187C257.167 85.9744 257.958 85.3281 258.563 84.9242C258.592 85.1896 258.61 85.5359 258.61 85.9859C258.61 87.4861 258.39 89.6095 257.958 92.2869L254.882 111.12L254.853 111.513C254.853 114.231 258.627 114.548 261.472 114.548H265.73C266.838 114.548 268.113 113.861 268.378 112.586L271.921 98.2012C272.089 97.4511 272.267 96.6779 272.406 95.9509C272.781 94.0756 273.006 92.1888 273.07 90.4347L277.639 86.6495C279.653 85.0396 280.599 84.6242 280.998 84.5203C281.044 84.6992 281.09 85.0108 281.09 85.507C281.09 88.6517 280.386 91.2425 279.578 94.2429C278.545 98.0569 277.374 102.379 277.374 108.835C277.374 117.721 282.359 128.096 296.398 128.096C302.168 128.096 311.839 126.959 311.839 119.349C311.839 118.073 311.371 116.919 310.517 115.979C310.627 115.979 310.737 115.979 310.846 115.979C323.933 115.979 328.26 112.869 329.674 111.011C330.753 109.591 331.065 107.901 330.58 106.118L330.488 105.789V105.8ZM307.39 98.5647C308.682 90.4924 312.947 83.8337 317.101 83.8337C319.675 83.8337 320.73 84.9242 320.73 87.5958C320.73 90.2673 320.73 97.7858 307.39 98.5647ZM206.875 111.224C203.038 111.224 202.334 109.355 202.334 105.673C202.334 94.7507 207.319 84.803 212.789 84.803C213.978 84.803 217.128 84.803 217.128 91.5714C217.128 102.777 212.72 111.224 206.875 111.224ZM134.056 100.388C135.349 92.3157 139.613 85.657 143.768 85.657C146.341 85.657 147.397 86.7476 147.397 89.4191C147.397 92.0907 147.397 99.6091 134.056 100.388ZM188.416 98.0569C186.27 96.1644 183.379 94.768 180.673 93.464L179.577 92.9331C178.342 92.3215 177.124 91.831 175.947 91.3521C173.818 90.4866 171.406 89.5114 171.406 88.6228C171.406 85.7493 174.799 85.2877 176.836 85.2647C180.69 85.2647 182.618 86.2456 183.131 91.7849L183.304 93.614H185.145C187.193 93.614 190.09 92.1888 190.823 90.8905C189.986 92.7773 188.705 95.8297 188.416 98.0512V98.0569ZM169.058 103.1C169.618 103.273 170.183 103.446 170.743 103.619C173.674 104.508 179.132 106.17 179.132 107.531C179.132 109.868 175.428 111.767 170.875 111.767C165.498 111.767 162.67 109.424 162.238 104.612L161.943 102.535H160.189C158.972 102.535 157.875 102.702 156.941 103.031C154.581 103.452 151.84 105.293 148.943 107.237C145.983 109.222 142.631 111.478 140.588 111.478C135.205 111.478 133.843 109.614 133.67 106.147C146.116 105.725 155.181 102.165 158.914 96.5394C160.385 98.8936 163.369 101.288 169.052 103.1H169.058ZM68.3178 96.8106C68.3409 97.4569 68.3524 98.155 68.3524 98.8994C68.3524 106.112 69.6795 117.687 77.9135 120.081C77.7403 120.335 77.6134 120.624 77.5442 120.941C76.7537 124.542 74.8322 126.013 70.9028 126.013C58.699 126.013 55.0639 123.336 54.233 104.854C59.8992 104.421 65.8828 102.102 68.3063 96.8106H68.3178ZM42.4216 93.7525C42.4216 94.3756 42.4274 94.9699 42.4447 95.5296C40.0847 95.3104 37.6613 95.0277 35.3013 94.7565C34.9147 94.7103 34.5281 94.6699 34.1473 94.6237C35.7802 90.9482 37.292 87.2496 38.648 83.9318C39.6 81.5949 40.4829 79.4369 41.2964 77.5558C42.0408 81.5949 42.4274 87.088 42.4274 93.7525H42.4216ZM12.798 112.286C10.1783 112.286 7.37985 111.253 7.37985 108.357C7.37985 100.492 16.0465 99.3206 21.1819 99.3206C22.2782 99.3379 23.5476 99.4591 24.9613 99.6841C19.197 110.041 15.1868 112.286 12.798 112.286ZM301.389 117.791C301.124 118.645 300.316 121.253 295.019 121.253C287.945 121.253 287.945 118.356 287.945 117.121C287.945 116.152 288.147 115.044 288.556 113.827L292.544 101.675C292.965 108.218 297.027 112.984 303.536 114.969C302.514 115.627 301.753 116.614 301.389 117.791Z" fill="url(#paint0_linear_450_2058)" stroke="white" stroke-width="1.68441"/>
<path d="M134.57 57.9836C134.57 59.6685 134.149 61.0476 133.301 62.1266C132.458 63.1998 131.345 64.0365 129.96 64.6308C128.575 65.2251 127.08 65.6406 125.465 65.8714C123.849 66.1022 122.262 66.2176 120.704 66.2176H98.6166C97.601 66.2176 96.7875 66.0041 96.1816 65.5713C95.57 65.1443 95.2642 64.4577 95.2642 63.5114C95.2642 62.6863 95.4546 62.0631 95.8412 61.6419C96.2278 61.2207 96.6721 60.8802 97.1798 60.6148C97.6876 60.3494 98.1319 60.0378 98.5185 59.6858C98.9051 59.3281 99.0955 58.803 99.0955 58.1106V40.0098C99.0955 39.2828 98.9051 38.7462 98.5185 38.3999C98.1319 38.0537 97.6876 37.7537 97.1798 37.494C96.6721 37.2402 96.2278 36.9055 95.8412 36.49C95.4546 36.0746 95.2642 35.4514 95.2642 34.6032C95.2642 33.6627 95.57 32.9761 96.1816 32.5433C96.7932 32.1163 97.6068 31.897 98.6166 31.897H115.829C117.669 31.897 119.562 32.0702 121.507 32.4164C123.451 32.7626 125.251 33.3338 126.902 34.1243C128.552 34.9206 129.89 35.9765 130.918 37.2979C131.939 38.6192 132.452 40.2579 132.452 42.2082C132.452 44.3431 131.714 46.0165 130.242 47.2282C128.765 48.4457 127.017 49.317 124.986 49.842C126.619 50.1536 128.165 50.6499 129.619 51.3192C131.073 51.9885 132.262 52.8713 133.185 53.9619C134.103 55.0524 134.564 56.3911 134.564 57.9779L134.57 57.9836ZM113.128 36.8824H112.961V48.7111H113.977C116.1 48.7111 117.56 48.1745 118.356 47.1012C119.152 46.028 119.556 44.6374 119.556 42.9352C119.556 41.083 119.031 39.6117 117.981 38.5211C116.931 37.4306 115.315 36.8824 113.134 36.8824H113.128ZM120.987 57.4586C120.987 56.1372 120.549 55.0409 119.677 54.1754C118.806 53.3099 117.589 52.8713 116.031 52.8713H112.961V57.1124C112.961 58.3702 113.307 59.3742 114.005 60.1243C114.698 60.8745 115.788 61.2553 117.271 61.2553C118.645 61.2553 119.602 60.8975 120.156 60.1878C120.71 59.4781 120.987 58.5664 120.987 57.4586ZM133.226 34.5975C133.226 33.6569 133.543 32.9703 134.183 32.5375C134.824 32.1105 135.637 31.8913 136.636 31.8913H155.487C155.954 31.8913 156.641 31.8509 157.541 31.7701C158.441 31.6893 159.099 31.5624 159.514 31.4008C159.947 31.4008 160.362 31.3489 160.766 31.2393C161.17 31.1296 161.58 31.0777 161.989 31.0777C163.288 31.0777 164.246 31.3835 164.875 31.9951C165.503 32.6068 165.971 33.3569 166.271 34.2397C166.571 35.1225 166.865 35.9938 167.142 36.8536C167.35 37.4652 167.586 38.1172 167.863 38.8096C168.135 39.502 168.273 40.1829 168.273 40.8407C168.273 41.6197 167.91 42.2024 167.188 42.6006C166.467 42.9987 165.711 43.1949 164.921 43.1949C164.13 43.1949 163.495 43.0218 163.074 42.6756C162.653 42.3294 162.255 41.8678 161.874 41.285C161.257 40.2925 160.714 39.5193 160.253 38.9539C159.791 38.3942 159.208 37.996 158.504 37.7652C157.8 37.5344 156.75 37.419 155.365 37.419H151.084V46.5185H153.311C154.211 46.5185 154.84 46.3223 155.198 45.9241C155.556 45.526 155.821 45.0644 156 44.5336C156.179 44.0027 156.45 43.5411 156.819 43.143C157.189 42.7448 157.829 42.5486 158.747 42.5486C159.514 42.5486 160.132 42.7391 160.593 43.1199C161.055 43.5007 161.366 44.0027 161.539 44.6316L163.259 50.9268C163.294 51.0941 163.334 51.2673 163.374 51.4577C163.409 51.6481 163.432 51.8327 163.432 52.0174C163.432 52.7444 163.149 53.3329 162.59 53.7772C162.03 54.2215 161.337 54.4466 160.535 54.4466C159.97 54.4466 159.497 54.3196 159.11 54.06C158.724 53.8061 158.354 53.5003 157.997 53.1541C157.454 52.6059 157.016 52.2193 156.687 51.9885C156.358 51.7577 155.989 51.6192 155.573 51.5673C155.158 51.5154 154.552 51.4923 153.744 51.4923H151.096V56.5238C151.096 57.799 151.499 58.803 152.307 59.5473C153.115 60.2917 154.252 60.661 155.717 60.661C157.183 60.661 158.377 60.5456 159.197 60.3148C160.016 60.084 160.691 59.6685 161.228 59.0626C161.764 58.4568 162.37 57.597 163.045 56.4719C163.403 55.8949 163.79 55.4217 164.199 55.0582C164.615 54.6947 165.221 54.51 166.029 54.51C166.911 54.51 167.685 54.7466 168.354 55.214C169.023 55.6871 169.352 56.3334 169.352 57.1585C169.352 57.4701 169.289 57.8336 169.156 58.2491L167.581 63.1306C167.223 64.2384 166.756 65.1674 166.173 65.9175C165.59 66.6676 164.557 67.0485 163.074 67.0485C162.491 67.0485 161.92 66.985 161.355 66.8638C160.789 66.7426 160.235 66.6215 159.693 66.5061C158.695 66.2926 157.645 66.1829 156.537 66.1829H136.647C135.649 66.1829 134.835 65.9694 134.195 65.5367C133.554 65.1097 133.237 64.4231 133.237 63.4768C133.237 62.617 133.439 61.9823 133.843 61.5669C134.247 61.1514 134.709 60.8168 135.239 60.5629C135.764 60.309 136.232 60.0032 136.636 59.657C137.04 59.3108 137.242 58.7799 137.242 58.0702V39.9694C137.242 39.2597 137.04 38.7288 136.636 38.3826C136.232 38.0364 135.764 37.7364 135.239 37.4767C134.714 37.2228 134.247 36.8882 133.843 36.4727C133.439 36.0573 133.237 35.4226 133.237 34.5628L133.226 34.5975ZM168.764 34.5975C168.764 33.6569 169.081 32.9703 169.721 32.5375C170.362 32.1105 171.175 31.8913 172.174 31.8913H191.025C191.492 31.8913 192.179 31.8509 193.079 31.7701C193.979 31.6893 194.637 31.5624 195.052 31.4008C195.485 31.4008 195.9 31.3489 196.304 31.2393C196.708 31.1296 197.118 31.0777 197.527 31.0777C198.826 31.0777 199.784 31.3835 200.413 31.9951C201.041 32.6068 201.509 33.3569 201.809 34.2397C202.109 35.1225 202.403 35.9938 202.68 36.8536C202.888 37.4652 203.124 38.1172 203.401 38.8096C203.673 39.502 203.811 40.1829 203.811 40.8407C203.811 41.6197 203.448 42.2024 202.726 42.6006C202.005 42.9987 201.249 43.1949 200.459 43.1949C199.668 43.1949 199.033 43.0218 198.612 42.6756C198.191 42.3294 197.793 41.8678 197.412 41.285C196.795 40.2925 196.252 39.5193 195.791 38.9539C195.329 38.3942 194.746 37.996 194.042 37.7652C193.338 37.5344 192.288 37.419 190.903 37.419H186.622V46.5185H188.849C189.749 46.5185 190.378 46.3223 190.736 45.9241C191.094 45.526 191.359 45.0644 191.538 44.5336C191.717 44.0027 191.988 43.5411 192.357 43.143C192.727 42.7448 193.367 42.5486 194.285 42.5486C195.052 42.5486 195.67 42.7391 196.131 43.1199C196.593 43.5007 196.904 44.0027 197.077 44.6316L198.797 50.9268C198.832 51.0941 198.872 51.2673 198.912 51.4577C198.947 51.6481 198.97 51.8327 198.97 52.0174C198.97 52.7444 198.687 53.3329 198.128 53.7772C197.568 54.2215 196.875 54.4466 196.073 54.4466C195.508 54.4466 195.035 54.3196 194.648 54.06C194.262 53.8061 193.892 53.5003 193.535 53.1541C192.992 52.6059 192.554 52.2193 192.225 51.9885C191.896 51.7577 191.527 51.6192 191.111 51.5673C190.696 51.5154 190.09 51.4923 189.282 51.4923H186.634V56.5238C186.634 57.799 187.037 58.803 187.845 59.5473C188.653 60.2917 189.79 60.661 191.255 60.661C192.721 60.661 193.915 60.5456 194.735 60.3148C195.554 60.084 196.229 59.6685 196.766 59.0626C197.302 58.4568 197.908 57.597 198.583 56.4719C198.941 55.8949 199.328 55.4217 199.737 55.0582C200.153 54.6947 200.759 54.51 201.567 54.51C202.449 54.51 203.223 54.7466 203.892 55.214C204.561 55.6871 204.89 56.3334 204.89 57.1585C204.89 57.4701 204.827 57.8336 204.694 58.2491L203.119 63.1306C202.761 64.2384 202.294 65.1674 201.711 65.9175C201.128 66.6676 200.095 67.0485 198.612 67.0485C198.029 67.0485 197.458 66.985 196.893 66.8638C196.327 66.7426 195.773 66.6215 195.231 66.5061C194.233 66.2926 193.183 66.1829 192.075 66.1829H172.185C171.187 66.1829 170.373 65.9694 169.733 65.5367C169.092 65.1097 168.775 64.4231 168.775 63.4768C168.775 62.617 168.977 61.9823 169.381 61.5669C169.785 61.1514 170.246 60.8168 170.777 60.5629C171.302 60.309 171.77 60.0032 172.174 59.657C172.578 59.3108 172.78 58.7799 172.78 58.0702V39.9694C172.78 39.2597 172.578 38.7288 172.174 38.3826C171.77 38.0364 171.302 37.7364 170.777 37.4767C170.252 37.2228 169.785 36.8882 169.381 36.4727C168.977 36.0573 168.775 35.4226 168.775 34.5628L168.764 34.5975ZM243.267 43.9219C243.267 45.8087 242.748 47.3494 241.703 48.5438C240.659 49.7439 239.314 50.696 237.658 51.4057L241.94 58.6183C242.355 59.2934 242.852 59.8243 243.434 60.2051C244.017 60.5859 244.531 61.0014 244.986 61.4572C245.437 61.9131 245.662 62.5939 245.662 63.4998C245.662 64.4058 245.35 65.127 244.733 65.5598C244.115 65.9925 243.296 66.206 242.28 66.206H230.221C228.063 66.206 226.978 65.3059 226.978 63.5056C226.978 62.8132 227.278 62.1612 227.878 61.5496C227.895 61.3822 227.936 61.2207 227.994 61.0649C228.051 60.9091 228.08 60.7475 228.08 60.5802C228.08 60.3667 227.942 59.9282 227.659 59.2646C227.376 58.601 227.036 57.8625 226.632 57.0316C226.228 56.2064 225.836 55.4217 225.46 54.6774C225.235 54.6947 225.016 54.7005 224.814 54.7005C223.649 54.7005 222.483 54.5851 221.323 54.3542V58.099C221.323 58.5606 221.352 58.878 221.41 59.0396C221.468 59.2069 221.664 59.4781 222.004 59.8589C222.57 60.4705 223.066 61.0129 223.499 61.4803C223.931 61.9535 224.145 62.6228 224.145 63.4998C224.145 64.4577 223.839 65.1501 223.227 65.5713C222.616 65.9925 221.796 66.206 220.764 66.206H206.956C205.94 66.206 205.127 65.9925 204.521 65.5598C203.909 65.1328 203.603 64.4461 203.603 63.4998C203.603 62.6401 203.794 62.0112 204.18 61.6015C204.567 61.1976 205.017 60.8687 205.531 60.609C206.044 60.3551 206.5 60.0493 206.881 59.7031C207.267 59.3569 207.458 58.8203 207.458 58.0933V39.9925C207.458 39.2655 207.267 38.7231 206.881 38.3711C206.494 38.0133 206.044 37.7075 205.531 37.4537C205.011 37.1998 204.561 36.8651 204.18 36.4612C203.794 36.0573 203.603 35.4341 203.603 34.5917C203.603 33.6512 203.909 32.9645 204.521 32.5318C205.132 32.1048 205.946 31.8855 206.956 31.8855H222.65C224.376 31.8855 226.193 32.0009 228.103 32.2317C230.007 32.4625 231.86 32.8491 233.654 33.3857C235.449 33.9224 237.07 34.6494 238.53 35.5668C239.984 36.4843 241.138 37.6267 241.998 39C242.852 40.3733 243.279 42.0063 243.279 43.9104L243.267 43.9219ZM221.318 36.8824V50.0209C221.733 50.0555 222.2 50.0728 222.725 50.0728C225.016 50.0728 226.661 49.4958 227.653 48.3476C228.646 47.1993 229.148 45.6818 229.148 43.8008C229.148 41.9197 228.484 40.2521 227.163 38.9019C225.841 37.5575 224.047 36.8824 221.797 36.8824H221.318Z" fill="#FF6F00"/>
</g>
<defs>
<filter id="filter0_d_450_2058" x="-19.9653" y="-19.9534" width="374.942" height="191.222" filterUnits="userSpaceOnUse" color-interpolation-filters="sRGB">
<feFlood flood-opacity="0" result="BackgroundImageFix"/>
<feColorMatrix in="SourceAlpha" type="matrix" values="0 0 0 0 0 0 0 0 0 0 0 0 0 0 0 0 0 0 127 0" result="hardAlpha"/>
<feOffset/>
<feGaussianBlur stdDeviation="10"/>
<feComposite in2="hardAlpha" operator="out"/>
<feColorMatrix type="matrix" values="0 0 0 0 0.225 0 0 0 0 0.225 0 0 0 0 0.225 0 0 0 0.15 0"/>
<feBlend mode="normal" in2="BackgroundImageFix" result="effect1_dropShadow_450_2058"/>
<feBlend mode="normal" in="SourceGraphic" in2="effect1_dropShadow_450_2058" result="shape"/>
</filter>
<linearGradient id="paint0_linear_450_2058" x1="0.865413" y1="92.1368" x2="334.134" y2="92.1368" gradientUnits="userSpaceOnUse">
<stop stop-color="#FF6F00"/>
<stop offset="0.31" stop-color="#FF6B00"/>
<stop offset="0.6" stop-color="#FF6000"/>
<stop offset="0.87" stop-color="#FF4D00"/>
<stop offset="1" stop-color="#FF4200"/>
</linearGradient>
</defs>
</svg>
