<svg width="24" height="25" viewBox="0 0 24 25" fill="none" xmlns="http://www.w3.org/2000/svg">
<path d="M8.59 14.4202L15.42 18.4002M15.41 7.42022L8.59 11.4002M21 5.91022C21 7.56707 19.6569 8.91022 18 8.91022C16.3431 8.91022 15 7.56707 15 5.91022C15 4.25336 16.3431 2.91022 18 2.91022C19.6569 2.91022 21 4.25336 21 5.91022ZM9 12.9102C9 14.5671 7.65685 15.9102 6 15.9102C4.34315 15.9102 3 14.5671 3 12.9102C3 11.2534 4.34315 9.91022 6 9.91022C7.65685 9.91022 9 11.2534 9 12.9102ZM21 19.9102C21 21.5671 19.6569 22.9102 18 22.9102C16.3431 22.9102 15 21.5671 15 19.9102C15 18.2534 16.3431 16.9102 18 16.9102C19.6569 16.9102 21 18.2534 21 19.9102Z" stroke="#FF6F00" stroke-width="2" stroke-linecap="round" stroke-linejoin="round"/>
</svg>
