<svg width="195" height="117" viewBox="0 0 195 117" fill="none" xmlns="http://www.w3.org/2000/svg">
<g filter="url(#filter0_bd_455_2667)">
<rect x="10" y="39" width="175" height="55" rx="8" fill="url(#paint0_linear_455_2667)" shape-rendering="crispEdges"/>
<g filter="url(#filter1_dii_455_2667)">
<rect x="77.5" y="26" width="40" height="40" rx="20" fill="white"/>
</g>
<path d="M108.945 52.4214C108.945 53.5519 108.699 54.5103 108.183 55.223C107.667 55.9357 107.003 56.5255 106.192 56.9187C105.381 57.3119 104.472 57.6068 103.514 57.7543C102.555 57.9017 101.597 58 100.663 58H87.4906C86.8762 58 86.4093 57.8526 86.0407 57.5577C85.672 57.2628 85.5 56.7958 85.5 56.1569C85.5 55.5917 85.6229 55.1739 85.8441 54.879C86.0652 54.5841 86.3356 54.3629 86.6305 54.1909C86.9254 54.0188 87.1957 53.7977 87.4169 53.5519C87.638 53.3062 87.7609 52.9621 87.7609 52.4952V40.2321C87.7609 39.7406 87.638 39.372 87.4169 39.1508C87.1957 38.9297 86.9254 38.7085 86.6305 38.5365C86.3356 38.3644 86.0652 38.1432 85.8441 37.8483C85.6229 37.5534 85.5 37.1357 85.5 36.5704C85.5 35.9315 85.672 35.4646 86.0407 35.1696C86.4093 34.8747 86.9008 34.7273 87.4906 34.7273H97.763C98.8689 34.7273 99.9994 34.8502 101.154 35.0713C102.309 35.2925 103.391 35.6857 104.374 36.2264C105.357 36.767 106.168 37.4797 106.758 38.389C107.347 39.2983 107.667 40.4042 107.667 41.7067C107.667 43.1566 107.224 44.2871 106.34 45.098C105.455 45.909 104.423 46.5234 103.194 46.8675C104.177 47.0886 105.086 47.4081 105.947 47.875C106.807 48.342 107.519 48.9318 108.06 49.669C108.601 50.4063 108.871 51.3156 108.871 52.3969L108.945 52.4214ZM96.1656 38.1187H96.0673V46.1302H96.6817C97.9596 46.1302 98.8198 45.7616 99.2867 45.0489C99.7536 44.3362 99.9994 43.3778 99.9994 42.2227C99.9994 40.9694 99.6799 39.9618 99.0655 39.2246C98.4511 38.4873 97.4681 38.1187 96.1656 38.1187ZM100.86 52.0528C100.86 51.1681 100.589 50.4063 100.073 49.8165C99.557 49.2267 98.8198 48.9318 97.8859 48.9318H96.0428V51.8071C96.0428 52.6672 96.2394 53.3307 96.6571 53.8468C97.0749 54.3629 97.7139 54.6086 98.5986 54.6086C99.4096 54.6086 99.9994 54.3629 100.319 53.896C100.638 53.429 100.81 52.7901 100.81 52.0528H100.86Z" fill="url(#paint1_linear_455_2667)"/>
<path d="M63.13 81.746H61.688V72.45H63.13V81.746ZM59.854 80.094C59.1167 79.87 58.482 79.5387 57.95 79.1C57.4273 78.652 57.0213 78.1293 56.732 77.532C56.452 78.176 56.046 78.7407 55.514 79.226C54.9913 79.7113 54.352 80.0753 53.596 80.318L52.896 79.184C53.3907 79.0253 53.8293 78.8153 54.212 78.554C54.5947 78.2927 54.9167 77.9987 55.178 77.672C55.4487 77.336 55.6493 76.9767 55.78 76.594C55.92 76.202 55.99 75.796 55.99 75.376V75.166H53.246V74.018H55.99V72.492H57.432V74.018H60.148V75.166H57.432V75.376C57.432 75.7587 57.502 76.1367 57.642 76.51C57.782 76.874 57.9827 77.2147 58.244 77.532C58.5147 77.8493 58.8413 78.134 59.224 78.386C59.6067 78.6287 60.0407 78.82 60.526 78.96L59.854 80.094ZM63.494 83.664V84.84H54.87V80.892H56.326V83.664H63.494ZM77.0309 79.8H71.9909V85.078H70.5349V79.8H65.5929V78.61H73.8109C73.9976 77.7327 74.1049 76.9533 74.1329 76.272C74.1609 75.5813 74.1749 74.9467 74.1749 74.368H66.9649V73.206H75.5889V74.312C75.5889 74.9093 75.5749 75.5533 75.5469 76.244C75.5189 76.9253 75.4256 77.714 75.2669 78.61H77.0309V79.8ZM88.2578 76.706V79.254H90.1618V80.444H88.2578V85.092H86.8158V72.436H88.2578V75.516H90.1618V76.706H88.2578ZM81.8318 73.36C82.3078 73.36 82.7418 73.4673 83.1338 73.682C83.5351 73.8873 83.8758 74.186 84.1558 74.578C84.4451 74.9607 84.6691 75.4273 84.8278 75.978C84.9958 76.5193 85.0798 77.1307 85.0798 77.812C85.0798 78.4933 84.9958 79.114 84.8278 79.674C84.6691 80.2247 84.4451 80.6913 84.1558 81.074C83.8758 81.4567 83.5351 81.7553 83.1338 81.97C82.7418 82.1753 82.3078 82.278 81.8318 82.278C81.3558 82.278 80.9171 82.1753 80.5158 81.97C80.1238 81.7553 79.7831 81.4567 79.4938 81.074C79.2138 80.6913 78.9898 80.2247 78.8218 79.674C78.6631 79.114 78.5838 78.4933 78.5838 77.812C78.5838 77.1307 78.6631 76.5193 78.8218 75.978C78.9898 75.4273 79.2138 74.9607 79.4938 74.578C79.7831 74.186 80.1238 73.8873 80.5158 73.682C80.9171 73.4673 81.3558 73.36 81.8318 73.36ZM81.8318 80.99C82.3918 80.99 82.8398 80.7147 83.1758 80.164C83.5211 79.6133 83.6938 78.8293 83.6938 77.812C83.6938 76.8227 83.5211 76.0527 83.1758 75.502C82.8398 74.942 82.3918 74.662 81.8318 74.662C81.2718 74.662 80.8191 74.942 80.4738 75.502C80.1378 76.0527 79.9698 76.8227 79.9698 77.812C79.9698 78.8293 80.1378 79.6133 80.4738 80.164C80.8191 80.7147 81.2718 80.99 81.8318 80.99ZM104.898 72.422V85.064H103.442V72.422H104.898ZM99.2556 76.454C99.2556 76.958 99.3302 77.4573 99.4796 77.952C99.6289 78.4373 99.8389 78.8993 100.11 79.338C100.39 79.7673 100.726 80.1593 101.118 80.514C101.519 80.8593 101.962 81.1393 102.448 81.354L101.678 82.474C100.95 82.1567 100.32 81.69 99.7876 81.074C99.2556 80.458 98.8449 79.7533 98.5556 78.96C98.2756 79.8093 97.8649 80.5607 97.3236 81.214C96.7916 81.858 96.1569 82.348 95.4196 82.684L94.6216 81.578C95.1162 81.354 95.5596 81.06 95.9516 80.696C96.3529 80.332 96.6889 79.9213 96.9596 79.464C97.2396 79.0067 97.4496 78.5213 97.5896 78.008C97.7389 77.4947 97.8136 76.9767 97.8136 76.454V75.726H95.0136V74.564H97.8136V72.688H99.2556V74.564H102V75.726H99.2556V76.454ZM118.056 72.436V79.954H116.684V76.776H115.354V79.898H113.996V72.674H115.354V75.6H116.684V72.436H118.056ZM112.806 79.114H107.864V73.528H112.806V79.114ZM111.462 74.648H109.208V77.994H111.462V74.648ZM109.474 80.612H118.056V85.078H116.614V81.774H109.474V80.612ZM131.658 79.982C131.882 78.8247 132.018 77.8213 132.064 76.972C132.12 76.1227 132.148 75.404 132.148 74.816H129.166V73.654H133.562V74.508C133.562 75.124 133.544 75.8893 133.506 76.804C133.469 77.7187 133.329 78.834 133.086 80.15L131.658 79.982ZM125.932 79.968C126.287 78.792 126.511 77.784 126.604 76.944C126.707 76.0947 126.768 75.3853 126.786 74.816H124.238V73.654H128.214V74.2C128.214 74.4707 128.21 74.7927 128.2 75.166C128.191 75.5393 128.158 75.9733 128.102 76.468C128.056 76.9627 127.972 77.5227 127.85 78.148C127.738 78.764 127.575 79.45 127.36 80.206L125.932 79.968ZM134.794 82.138V83.314H123.342V82.138H128.592V78.176H130.02V82.138H134.794ZM138.251 81.172C138.204 80.584 138.218 80.0987 138.293 79.716C138.377 79.3333 138.494 79.016 138.643 78.764C138.802 78.512 138.974 78.302 139.161 78.134C139.357 77.966 139.539 77.798 139.707 77.63C139.875 77.462 140.015 77.2753 140.127 77.07C140.248 76.8553 140.309 76.58 140.309 76.244C140.309 75.9267 140.272 75.6653 140.197 75.46C140.122 75.2547 140.02 75.096 139.889 74.984C139.768 74.8627 139.628 74.7833 139.469 74.746C139.31 74.6993 139.147 74.676 138.979 74.676C138.55 74.676 138.204 74.8113 137.943 75.082C137.682 75.3433 137.528 75.824 137.481 76.524H136.095C136.123 76.0293 136.198 75.6047 136.319 75.25C136.45 74.8953 136.604 74.5967 136.781 74.354C136.968 74.102 137.173 73.906 137.397 73.766C137.621 73.6167 137.84 73.5047 138.055 73.43C138.27 73.346 138.47 73.29 138.657 73.262C138.844 73.234 138.998 73.22 139.119 73.22C139.548 73.22 139.931 73.3087 140.267 73.486C140.603 73.654 140.888 73.878 141.121 74.158C141.354 74.438 141.532 74.7553 141.653 75.11C141.774 75.4553 141.835 75.8053 141.835 76.16C141.835 76.6267 141.774 77.0093 141.653 77.308C141.541 77.5973 141.396 77.8493 141.219 78.064C141.051 78.2693 140.869 78.4607 140.673 78.638C140.477 78.806 140.3 78.9973 140.141 79.212C139.982 79.4267 139.856 79.688 139.763 79.996C139.67 80.2947 139.642 80.6867 139.679 81.172H138.251ZM139.763 82.446V84.182H138.111V82.446H139.763Z" fill="white"/>
</g>
<defs>
<filter id="filter0_bd_455_2667" x="0" y="16" width="195" height="93" filterUnits="userSpaceOnUse" color-interpolation-filters="sRGB">
<feFlood flood-opacity="0" result="BackgroundImageFix"/>
<feGaussianBlur in="BackgroundImageFix" stdDeviation="5"/>
<feComposite in2="SourceAlpha" operator="in" result="effect1_backgroundBlur_455_2667"/>
<feColorMatrix in="SourceAlpha" type="matrix" values="0 0 0 0 0 0 0 0 0 0 0 0 0 0 0 0 0 0 127 0" result="hardAlpha"/>
<feOffset dy="5"/>
<feGaussianBlur stdDeviation="5"/>
<feComposite in2="hardAlpha" operator="out"/>
<feColorMatrix type="matrix" values="0 0 0 0 0 0 0 0 0 0 0 0 0 0 0 0 0 0 0.1 0"/>
<feBlend mode="normal" in2="effect1_backgroundBlur_455_2667" result="effect2_dropShadow_455_2667"/>
<feBlend mode="normal" in="SourceGraphic" in2="effect2_dropShadow_455_2667" result="shape"/>
</filter>
<filter id="filter1_dii_455_2667" x="39.3182" y="0.545456" width="116.364" height="116.364" filterUnits="userSpaceOnUse" color-interpolation-filters="sRGB">
<feFlood flood-opacity="0" result="BackgroundImageFix"/>
<feColorMatrix in="SourceAlpha" type="matrix" values="0 0 0 0 0 0 0 0 0 0 0 0 0 0 0 0 0 0 127 0" result="hardAlpha"/>
<feOffset dy="12.7273"/>
<feGaussianBlur stdDeviation="19.0909"/>
<feComposite in2="hardAlpha" operator="out"/>
<feColorMatrix type="matrix" values="0 0 0 0 0.525 0 0 0 0 0.525 0 0 0 0 0.525 0 0 0 0.35 0"/>
<feBlend mode="normal" in2="BackgroundImageFix" result="effect1_dropShadow_455_2667"/>
<feBlend mode="normal" in="SourceGraphic" in2="effect1_dropShadow_455_2667" result="shape"/>
<feColorMatrix in="SourceAlpha" type="matrix" values="0 0 0 0 0 0 0 0 0 0 0 0 0 0 0 0 0 0 127 0" result="hardAlpha"/>
<feOffset dx="3.81818" dy="2.54545"/>
<feGaussianBlur stdDeviation="2.54545"/>
<feComposite in2="hardAlpha" operator="arithmetic" k2="-1" k3="1"/>
<feColorMatrix type="matrix" values="0 0 0 0 1 0 0 0 0 1 0 0 0 0 1 0 0 0 0.35 0"/>
<feBlend mode="normal" in2="shape" result="effect2_innerShadow_455_2667"/>
<feColorMatrix in="SourceAlpha" type="matrix" values="0 0 0 0 0 0 0 0 0 0 0 0 0 0 0 0 0 0 127 0" result="hardAlpha"/>
<feOffset dx="-1.27273" dy="-3.81818"/>
<feGaussianBlur stdDeviation="5.09091"/>
<feComposite in2="hardAlpha" operator="arithmetic" k2="-1" k3="1"/>
<feColorMatrix type="matrix" values="0 0 0 0 0 0 0 0 0 0 0 0 0 0 0 0 0 0 0.25 0"/>
<feBlend mode="normal" in2="effect2_innerShadow_455_2667" result="effect3_innerShadow_455_2667"/>
</filter>
<linearGradient id="paint0_linear_455_2667" x1="20.2667" y1="48.5505" x2="24.7834" y2="104.442" gradientUnits="userSpaceOnUse">
<stop stop-color="#FF7F1C"/>
<stop offset="1" stop-color="#FF512B"/>
</linearGradient>
<linearGradient id="paint1_linear_455_2667" x1="85.5" y1="46.3759" x2="108.945" y2="46.3759" gradientUnits="userSpaceOnUse">
<stop stop-color="#FF6F00"/>
<stop offset="0.31" stop-color="#FF6B00"/>
<stop offset="0.6" stop-color="#FF6000"/>
<stop offset="0.87" stop-color="#FF4D00"/>
<stop offset="1" stop-color="#FF4200"/>
</linearGradient>
</defs>
</svg>
