<svg width="180" height="117" viewBox="0 0 180 117" fill="none" xmlns="http://www.w3.org/2000/svg">
<g filter="url(#filter0_bd_455_2719)">
<rect x="10" y="39" width="160" height="55" rx="8" fill="white" fill-opacity="0.9" shape-rendering="crispEdges"/>
<g filter="url(#filter1_dii_455_2719)">
<rect x="70" y="26" width="40" height="40" rx="20" fill="white"/>
</g>
<g filter="url(#filter2_d_455_2719)">
<path d="M97.0777 46.8542C98.1543 46.8542 99.1868 46.4266 99.948 45.6653C100.709 44.9041 101.137 43.8716 101.137 42.795C101.137 41.7185 100.709 40.686 99.948 39.9248C99.1868 39.1635 98.1543 38.7358 97.0777 38.7358C96.0011 38.7358 94.9687 39.1635 94.2074 39.9248C93.4462 40.686 93.0185 41.7185 93.0185 42.795C93.0185 43.8716 93.4462 44.9041 94.2074 45.6653C94.9687 46.4266 96.0011 46.8542 97.0777 46.8542ZM95.6285 48.3764C92.5048 48.3764 89.9741 50.9071 89.9741 54.0308C89.9741 54.5508 90.3959 54.9726 90.916 54.9726H103.239C103.76 54.9726 104.181 54.5508 104.181 54.0308C104.181 50.9071 101.651 48.3764 98.527 48.3764H95.6285Z" fill="#FF8F00"/>
</g>
<g filter="url(#filter3_d_455_2719)">
<path d="M82.1944 46.8542C83.271 46.8542 84.3035 46.4266 85.0647 45.6653C85.8259 44.9041 86.2536 43.8716 86.2536 42.795C86.2536 41.7185 85.8259 40.686 85.0647 39.9248C84.3035 39.1635 83.271 38.7358 82.1944 38.7358C81.1178 38.7358 80.0854 39.1635 79.3241 39.9248C78.5629 40.686 78.1352 41.7185 78.1352 42.795C78.1352 43.8716 78.5629 44.9041 79.3241 45.6653C80.0854 46.4266 81.1178 46.8542 82.1944 46.8542ZM80.7452 48.3764C77.6215 48.3764 75.0908 50.9071 75.0908 54.0308C75.0908 54.5508 75.5126 54.9726 76.0327 54.9726H88.3561C88.8762 54.9726 89.298 54.5508 89.298 54.0308C89.298 50.9071 86.7674 48.3764 83.6437 48.3764H80.7452Z" fill="#FF8F00"/>
</g>
<g filter="url(#filter4_d_455_2719)">
<path d="M89.6531 44.4863C91.0885 44.4863 92.4652 43.9339 93.4801 42.9506C94.4951 41.9673 95.0654 40.6337 95.0654 39.2431C95.0654 37.8526 94.4951 36.519 93.4801 35.5357C92.4652 34.5524 91.0885 34 89.6531 34C88.2177 34 86.841 34.5524 85.8261 35.5357C84.8111 36.519 84.2408 37.8526 84.2408 39.2431C84.2408 40.6337 84.8111 41.9673 85.8261 42.9506C86.841 43.9339 88.2177 44.4863 89.6531 44.4863ZM87.7208 46.4524C83.5558 46.4524 80.1816 49.7212 80.1816 53.7559C80.1816 54.4277 80.744 54.9725 81.4375 54.9725H97.8687C98.5622 54.9725 99.1246 54.4277 99.1246 53.7559C99.1246 49.7212 95.7504 46.4524 91.5854 46.4524H87.7208Z" fill="url(#paint0_linear_455_2719)"/>
</g>
<path d="M72.96 77.308C73.1187 76.6827 73.212 76.1273 73.24 75.642C73.2773 75.1567 73.296 74.676 73.296 74.2H66.044V73.038H74.724V74.102C74.724 74.606 74.71 75.1287 74.682 75.67C74.654 76.2113 74.5513 76.8087 74.374 77.462L72.96 77.308ZM76.124 78.218V79.38H64.728V78.218H69.208V75.894H70.664V78.218H76.124ZM70.384 80.36C71.056 80.36 71.6627 80.416 72.204 80.528C72.7547 80.6307 73.2213 80.7847 73.604 80.99C73.9867 81.1953 74.2807 81.4427 74.486 81.732C74.7007 82.0213 74.808 82.348 74.808 82.712C74.808 83.076 74.7007 83.4073 74.486 83.706C74.2807 83.9953 73.9867 84.2427 73.604 84.448C73.2213 84.6533 72.7547 84.8073 72.204 84.91C71.6627 85.022 71.056 85.078 70.384 85.078C69.7027 85.078 69.0867 85.022 68.536 84.91C67.9853 84.8073 67.5187 84.6533 67.136 84.448C66.7533 84.2427 66.4547 83.9953 66.24 83.706C66.0347 83.4073 65.932 83.076 65.932 82.712C65.932 82.348 66.0347 82.0213 66.24 81.732C66.4547 81.4427 66.7533 81.1953 67.136 80.99C67.5187 80.7847 67.9853 80.6307 68.536 80.528C69.0867 80.416 69.7027 80.36 70.384 80.36ZM70.384 83.972C71.3173 83.972 72.0453 83.8647 72.568 83.65C73.1 83.426 73.366 83.1133 73.366 82.712C73.366 82.32 73.1 82.0167 72.568 81.802C72.0453 81.578 71.3173 81.466 70.384 81.466C69.4227 81.466 68.676 81.578 68.144 81.802C67.6213 82.0167 67.36 82.32 67.36 82.712C67.36 83.1133 67.6213 83.426 68.144 83.65C68.676 83.8647 69.4227 83.972 70.384 83.972ZM83.2909 78.484C82.6189 78.484 82.0076 78.4187 81.4569 78.288C80.9062 78.1573 80.4349 77.9707 80.0429 77.728C79.6509 77.4853 79.3429 77.1913 79.1189 76.846C78.9042 76.5007 78.7969 76.1133 78.7969 75.684C78.7969 75.264 78.9042 74.8813 79.1189 74.536C79.3429 74.1907 79.6509 73.8967 80.0429 73.654C80.4349 73.4113 80.9062 73.2247 81.4569 73.094C82.0076 72.9633 82.6189 72.898 83.2909 72.898C83.9536 72.898 84.5602 72.9633 85.1109 73.094C85.6616 73.2247 86.1329 73.4113 86.5249 73.654C86.9169 73.8967 87.2202 74.1907 87.4349 74.536C87.6589 74.8813 87.7709 75.264 87.7709 75.684C87.7709 76.1133 87.6589 76.5007 87.4349 76.846C87.2202 77.1913 86.9169 77.4853 86.5249 77.728C86.1329 77.9707 85.6616 78.1573 85.1109 78.288C84.5602 78.4187 83.9536 78.484 83.2909 78.484ZM83.2909 74.06C82.8336 74.06 82.4182 74.0973 82.0449 74.172C81.6809 74.2467 81.3682 74.354 81.1069 74.494C80.8456 74.634 80.6402 74.8067 80.4909 75.012C80.3509 75.208 80.2809 75.432 80.2809 75.684C80.2809 76.1973 80.5469 76.5987 81.0789 76.888C81.6202 77.1773 82.3576 77.322 83.2909 77.322C84.1962 77.322 84.9196 77.1773 85.4609 76.888C86.0116 76.5987 86.2869 76.1973 86.2869 75.684C86.2869 75.432 86.2122 75.208 86.0629 75.012C85.9229 74.8067 85.7222 74.634 85.4609 74.494C85.1996 74.354 84.8822 74.2467 84.5089 74.172C84.1449 74.0973 83.7389 74.06 83.2909 74.06ZM89.0589 80.752H86.2029V85.078H84.7329V80.752H81.8489V85.078H80.3789V80.752H77.5789V79.562H89.0449L89.0589 80.752ZM102.232 78.722H100.286V85.092H98.8298V72.436H100.286V77.518H102.232V78.722ZM94.8538 74.382H97.8078V75.558H90.4018V74.382H93.4118V72.618H94.8538V74.382ZM94.1538 76.454C94.6018 76.454 95.0171 76.5287 95.3998 76.678C95.7825 76.818 96.1138 77.0187 96.3938 77.28C96.6738 77.5413 96.8931 77.854 97.0518 78.218C97.2105 78.5727 97.2898 78.9693 97.2898 79.408C97.2898 79.8373 97.2105 80.234 97.0518 80.598C96.8931 80.962 96.6738 81.2747 96.3938 81.536C96.1138 81.7973 95.7825 82.0027 95.3998 82.152C95.0171 82.292 94.6018 82.362 94.1538 82.362C93.6965 82.362 93.2765 82.292 92.8938 82.152C92.5111 82.0027 92.1798 81.7973 91.8998 81.536C91.6198 81.2747 91.4005 80.962 91.2418 80.598C91.0925 80.234 91.0178 79.8373 91.0178 79.408C91.0178 78.9693 91.0925 78.5727 91.2418 78.218C91.4005 77.854 91.6198 77.5413 91.8998 77.28C92.1798 77.0187 92.5111 76.818 92.8938 76.678C93.2765 76.5287 93.6965 76.454 94.1538 76.454ZM94.1538 81.172C94.6671 81.172 95.0871 81.0133 95.4138 80.696C95.7498 80.3693 95.9178 79.94 95.9178 79.408C95.9178 78.876 95.7498 78.4513 95.4138 78.134C95.0871 77.8073 94.6671 77.644 94.1538 77.644C93.6405 77.644 93.2158 77.8073 92.8798 78.134C92.5531 78.4513 92.3898 78.876 92.3898 79.408C92.3898 79.94 92.5531 80.3693 92.8798 80.696C93.2158 81.0133 93.6405 81.172 94.1538 81.172ZM113.781 72.436V85.078H112.339V72.436H113.781ZM110.057 73.766C110.057 74.7087 109.954 75.614 109.749 76.482C109.553 77.3407 109.221 78.1527 108.755 78.918C108.297 79.6833 107.695 80.3973 106.949 81.06C106.202 81.7133 105.287 82.3013 104.205 82.824L103.435 81.676C105.096 80.8733 106.337 79.9167 107.159 78.806C107.98 77.686 108.451 76.398 108.573 74.942H104.065V73.766H110.057Z" fill="#FF6F00"/>
<rect x="10.5" y="39.5" width="159" height="54" rx="7.5" stroke="#FFA000" shape-rendering="crispEdges"/>
</g>
<defs>
<filter id="filter0_bd_455_2719" x="0" y="16" width="180" height="93" filterUnits="userSpaceOnUse" color-interpolation-filters="sRGB">
<feFlood flood-opacity="0" result="BackgroundImageFix"/>
<feGaussianBlur in="BackgroundImageFix" stdDeviation="5"/>
<feComposite in2="SourceAlpha" operator="in" result="effect1_backgroundBlur_455_2719"/>
<feColorMatrix in="SourceAlpha" type="matrix" values="0 0 0 0 0 0 0 0 0 0 0 0 0 0 0 0 0 0 127 0" result="hardAlpha"/>
<feOffset dy="5"/>
<feGaussianBlur stdDeviation="5"/>
<feComposite in2="hardAlpha" operator="out"/>
<feColorMatrix type="matrix" values="0 0 0 0 0 0 0 0 0 0 0 0 0 0 0 0 0 0 0.1 0"/>
<feBlend mode="normal" in2="effect1_backgroundBlur_455_2719" result="effect2_dropShadow_455_2719"/>
<feBlend mode="normal" in="SourceGraphic" in2="effect2_dropShadow_455_2719" result="shape"/>
</filter>
<filter id="filter1_dii_455_2719" x="31.8182" y="0.545456" width="116.364" height="116.364" filterUnits="userSpaceOnUse" color-interpolation-filters="sRGB">
<feFlood flood-opacity="0" result="BackgroundImageFix"/>
<feColorMatrix in="SourceAlpha" type="matrix" values="0 0 0 0 0 0 0 0 0 0 0 0 0 0 0 0 0 0 127 0" result="hardAlpha"/>
<feOffset dy="12.7273"/>
<feGaussianBlur stdDeviation="19.0909"/>
<feComposite in2="hardAlpha" operator="out"/>
<feColorMatrix type="matrix" values="0 0 0 0 0.525 0 0 0 0 0.525 0 0 0 0 0.525 0 0 0 0.35 0"/>
<feBlend mode="normal" in2="BackgroundImageFix" result="effect1_dropShadow_455_2719"/>
<feBlend mode="normal" in="SourceGraphic" in2="effect1_dropShadow_455_2719" result="shape"/>
<feColorMatrix in="SourceAlpha" type="matrix" values="0 0 0 0 0 0 0 0 0 0 0 0 0 0 0 0 0 0 127 0" result="hardAlpha"/>
<feOffset dx="3.81818" dy="2.54545"/>
<feGaussianBlur stdDeviation="2.54545"/>
<feComposite in2="hardAlpha" operator="arithmetic" k2="-1" k3="1"/>
<feColorMatrix type="matrix" values="0 0 0 0 1 0 0 0 0 1 0 0 0 0 1 0 0 0 0.35 0"/>
<feBlend mode="normal" in2="shape" result="effect2_innerShadow_455_2719"/>
<feColorMatrix in="SourceAlpha" type="matrix" values="0 0 0 0 0 0 0 0 0 0 0 0 0 0 0 0 0 0 127 0" result="hardAlpha"/>
<feOffset dx="-1.27273" dy="-3.81818"/>
<feGaussianBlur stdDeviation="5.09091"/>
<feComposite in2="hardAlpha" operator="arithmetic" k2="-1" k3="1"/>
<feColorMatrix type="matrix" values="0 0 0 0 0 0 0 0 0 0 0 0 0 0 0 0 0 0 0.25 0"/>
<feBlend mode="normal" in2="effect2_innerShadow_455_2719" result="effect3_innerShadow_455_2719"/>
</filter>
<filter id="filter2_d_455_2719" x="76.4435" y="25.2052" width="41.2683" height="43.2981" filterUnits="userSpaceOnUse" color-interpolation-filters="sRGB">
<feFlood flood-opacity="0" result="BackgroundImageFix"/>
<feColorMatrix in="SourceAlpha" type="matrix" values="0 0 0 0 0 0 0 0 0 0 0 0 0 0 0 0 0 0 127 0" result="hardAlpha"/>
<feOffset/>
<feGaussianBlur stdDeviation="6.76533"/>
<feComposite in2="hardAlpha" operator="out"/>
<feColorMatrix type="matrix" values="0 0 0 0 0.225 0 0 0 0 0.225 0 0 0 0 0.225 0 0 0 0.15 0"/>
<feBlend mode="normal" in2="BackgroundImageFix" result="effect1_dropShadow_455_2719"/>
<feBlend mode="normal" in="SourceGraphic" in2="effect1_dropShadow_455_2719" result="shape"/>
</filter>
<filter id="filter3_d_455_2719" x="61.5602" y="25.2052" width="41.2683" height="43.2981" filterUnits="userSpaceOnUse" color-interpolation-filters="sRGB">
<feFlood flood-opacity="0" result="BackgroundImageFix"/>
<feColorMatrix in="SourceAlpha" type="matrix" values="0 0 0 0 0 0 0 0 0 0 0 0 0 0 0 0 0 0 127 0" result="hardAlpha"/>
<feOffset/>
<feGaussianBlur stdDeviation="6.76533"/>
<feComposite in2="hardAlpha" operator="out"/>
<feColorMatrix type="matrix" values="0 0 0 0 0.225 0 0 0 0 0.225 0 0 0 0 0.225 0 0 0 0.15 0"/>
<feBlend mode="normal" in2="BackgroundImageFix" result="effect1_dropShadow_455_2719"/>
<feBlend mode="normal" in="SourceGraphic" in2="effect1_dropShadow_455_2719" result="shape"/>
</filter>
<filter id="filter4_d_455_2719" x="66.651" y="20.4693" width="46.0042" height="48.0337" filterUnits="userSpaceOnUse" color-interpolation-filters="sRGB">
<feFlood flood-opacity="0" result="BackgroundImageFix"/>
<feColorMatrix in="SourceAlpha" type="matrix" values="0 0 0 0 0 0 0 0 0 0 0 0 0 0 0 0 0 0 127 0" result="hardAlpha"/>
<feOffset/>
<feGaussianBlur stdDeviation="6.76533"/>
<feComposite in2="hardAlpha" operator="out"/>
<feColorMatrix type="matrix" values="0 0 0 0 0.225 0 0 0 0 0.225 0 0 0 0 0.225 0 0 0 0.15 0"/>
<feBlend mode="normal" in2="BackgroundImageFix" result="effect1_dropShadow_455_2719"/>
<feBlend mode="normal" in="SourceGraphic" in2="effect1_dropShadow_455_2719" result="shape"/>
</filter>
<linearGradient id="paint0_linear_455_2719" x1="81.293" y1="37.6418" x2="86.942" y2="57.4851" gradientUnits="userSpaceOnUse">
<stop stop-color="#FF7F1C"/>
<stop offset="1" stop-color="#FF512B"/>
</linearGradient>
</defs>
</svg>
